# xmcd
#
# Track frame offsets: 
#        150
#        10140
#        24210
#        36842
#        55475
#        71857
#        84567
#        99927
#        117865
#        128892
#
# Disc length: 1913 seconds
#
# Revision: 4
# Processed by: cddbd v1.5.2PL0 Copyright (c) Steve Scherf et al.
# Submitted via: ExactAudioCopy v1.0b1
#
DISCID=7c07770a
DTITLE=Anne Murray - Anne Murray's Greatest Hits
DYEAR=1980
DGENRE=Country
TTITLE0=Snowbird
TTITLE1=Danny's Song
TTITLE2=A Love Song
TTITLE3=You Won't See Me
TTITLE4=You Needed Me
TTITLE5=I Just Fall In Love Again
TTITLE6=Shadows In The Moonlight
TTITLE7=Broken Hearted Me
TTITLE8=Daydream Believer
TTITLE9=Could I Have This Dance
EXTD=
EXTT0=
EXTT1=
EXTT2=
EXTT3=
EXTT4=
EXTT5=
EXTT6=
EXTT7=
EXTT8=
EXTT9=
PLAYORDER=
